<?xml version="1.0" encoding="UTF-8"?>
<svg id="Layer_1" data-name="Layer 1" xmlns="http://www.w3.org/2000/svg" viewBox="0 0 1000 1000">
  <defs>
    <style>
      .cls-1 {
        fill: #fec7f9;
      }

      .cls-2 {
        fill: #feb2f7;
      }

      .cls-3 {
        fill: #fc8ef1;
      }

      .cls-4 {
        fill: #fea8f5;
      }

      .cls-5 {
        fill: #fe85f3;
      }

      .cls-6 {
        fill: #fec3f8;
      }

      .cls-7 {
        fill: #fe75f1;
      }

      .cls-8 {
        fill: #feebfb;
      }

      .cls-9 {
        fill: #feb7f7;
      }

      .cls-10 {
        fill: #fee2fb;
      }

      .cls-11 {
        fill: #fec1f9;
      }

      .cls-12 {
        fill: #fe38eb;
      }

      .cls-13 {
        fill: #fe70f0;
      }

      .cls-14 {
        fill: #fe69f0;
      }

      .cls-15 {
        fill: #fe3feb;
      }

      .cls-16 {
        fill: #fea3f5;
      }

      .cls-17 {
        fill: #fecaf8;
      }

      .cls-18 {
        fill: #fe96f4;
      }

      .cls-19 {
        fill: #fd89f1;
      }

      .cls-20 {
        fill: #feaef7;
      }

      .cls-21 {
        fill: #fe57ee;
      }

      .cls-22 {
        fill: #fe7bf1;
      }

      .cls-23 {
        fill: #fec1f8;
      }

      .cls-24 {
        fill: #fec6f9;
      }

      .cls-25 {
        fill: #fc97f2;
      }

      .cls-26 {
        fill: #fe98f4;
      }

      .cls-27 {
        fill: #feb5f8;
      }

      .cls-28 {
        fill: #feb9f7;
      }

      .cls-29 {
        fill: #fe4eed;
      }

      .cls-30 {
        fill: #fe3eeb;
      }

      .cls-31 {
        fill: #fd5cee;
      }

      .cls-32 {
        fill: #fea0f5;
      }

      .cls-33 {
        fill: #febdf8;
      }

      .cls-34 {
        fill: #febbf8;
      }

      .cls-35 {
        fill: #fea8f6;
      }

      .cls-36 {
        fill: #fea5f6;
      }

      .cls-37 {
        fill: #fe7df1;
      }

      .cls-38 {
        fill: #fd01e4;
      }

      .cls-39 {
        fill: #fed1fa;
      }

      .cls-40 {
        fill: #fe14e7;
      }

      .cls-41 {
        fill: #fedcfb;
      }

      .cls-42 {
        fill: #f9f9f9;
      }

      .cls-43 {
        fill: #fe85f2;
      }

      .cls-44 {
        fill: #fee6fb;
      }

      .cls-45 {
        fill: #fe48ed;
      }

      .cls-46 {
        fill: #fec0f8;
      }

      .cls-47 {
        fill: #fafafa;
      }

      .cls-48 {
        fill: #fe5cef;
      }

      .cls-49 {
        fill: #fd8ff2;
      }

      .cls-50 {
        fill: #fe1ce8;
      }

      .cls-51 {
        fill: #fe90f3;
      }

      .cls-52 {
        fill: #fe64ef;
      }

      .cls-53 {
        fill: #fefefe;
      }

      .cls-54 {
        fill: #fea2f5;
      }

      .cls-55 {
        fill: #fe7ff2;
      }

      .cls-56 {
        fill: #fee3fa;
      }

      .cls-57 {
        fill: #fed6fa;
      }

      .cls-58 {
        fill: #fe27e9;
      }

      .cls-59 {
        fill: #feeffc;
      }

      .cls-60 {
        fill: #f815e2;
      }

      .cls-61 {
        fill: #fe2eea;
      }

      .cls-62 {
        fill: #feabf6;
      }

      .cls-63 {
        fill: #fec5f8;
      }

      .cls-64 {
        fill: #fbfbfb;
      }

      .cls-65 {
        fill: #fe9bf4;
      }

      .cls-66 {
        fill: #febff8;
      }

      .cls-67 {
        fill: #fee8fc;
      }

      .cls-68 {
        fill: #fec9f9;
      }

      .cls-69 {
        fill: #febcf8;
      }

      .cls-70 {
        fill: #feacf6;
      }

      .cls-71 {
        fill: #feaff7;
      }

      .cls-72 {
        fill: #feb0f7;
      }

      .cls-73 {
        fill: #fecbf9;
      }

      .cls-74 {
        fill: #feb1f7;
      }

      .cls-75 {
        fill: #fedefb;
      }

      .cls-76 {
        fill: #fef5fd;
      }

      .cls-77 {
        fill: #fecef9;
      }

      .cls-78 {
        fill: #fedbfb;
      }

      .cls-79 {
        fill: #fdfdfd;
      }

      .cls-80 {
        fill: #feecfc;
      }

      .cls-81 {
        fill: #fea9f6;
      }
    </style>
  </defs>
  <rect width="1000" height="1000"/>
  <g>
    <path class="cls-53" d="M694.67,692.05c-10.18-7.06-24.03-12.66-36.19-14.9l-3-3.84c-17.97-8.79-35.2-19.28-49.85-33.01l-4.63-1.46-1.11-4.12c-9.45-9.59-17.29-20.65-23.08-32.81l-3.48-2.46c.48-4.36-.54-8.98-3.07-13.85-1.36-7.13-3.89-13.51-7.59-19.15,1.65-.78,1.29-1.85-1.07-3.18.43-11.8-2.43-26.14-8.51-36.19.64-7.06-.68-14.32-3.96-21.76-1.41-7.16-4.35-13.04-8.81-17.63.13-5.68-1.95-11.38-6.22-17.07-5.4-12.87-42.4-56.93-54.33-56.72-.75.01-1.51.16-2.24.36-.33-1.43-.68-1.79-1.07-1.07l-1.24-3c-10.9-4.99-22.36-9.05-34.08-11.59l-1.95,1.82c-5.77-4.76-15.6-3.81-22.34-1.07-17.64.21-36.61,4.3-50.04,16.49-26.08,23.65-15.3,69.95,23.84,66.41,10.82-.98,22.16-5.71,32.59-8.4,8.84-.34,17.67-.75,26.49-1.24,46.27.8,60.88,29.52,69.95,70.93l2.56,2.7c-1.25,11.34,2.97,24.57,6.53,35.48l1.97,1.76c-.31.81-.6,1.62-.74,2.44-.98,5.71,9.87,27.26,13.41,33.57,10.38,18.49,25.67,38.24,45.88,45.95l.78,2.53c27.74,14.89,62.49,25.64,94.36,27.7,3.27.21,12.81.33,10.23-3.62ZM408.39,431.76c17.67,16.09-8.71,41.15-24.16,24.69-15.13-16.11,8.55-38.89,24.16-24.69Z"/>
    <path class="cls-53" d="M451.76,519.31c-7.54-19.38-37.57-19.7-44.5.32l-81.84-24.59c.91-8.29-3.74-15.09-11.36-17.95,1-6.76,3.49-51.98,5.91-53.82,2.89-2.2,6.95-.7,11.14-6.96,3.7-5.54,1.82-8.81,3.78-14.31l68.87-33.34c1.84-.17,4.41,3.75,6.36,4.98,18.94,12.02,40.01-9.6,27.86-27.86-9.18-13.79-28.98-11.03-35.56,3.59l-61.07-14.99c.54-4.34-1.59-10.37-4.67-13.43-17.22-17.17-42.46,17.18-15.52,28.02l-4.81,41.94c-8.08,1.64-11.88,6.76-15.14,13.82-4.03-.7-7.68.83-11.49,1.07-4.59.28-20.84.82-24.31-.03-1.23-.31-1.97-3.87-3.21-5.01-9.74-9.01-24.43,8.73-11.04,15.85,8.77,4.67,10.83-4.35,19.48-5.41,4.06-.49,27.87-.86,30.58.04,1.81.6,6.81,12.28,12.29,11.66l-5.34,54.02c-8.02-2.11-13.63,12.11-15.46,12.74-3.11,1.07-13.68.02-17.97.13-2.91.08-6.74,1.81-9.36,1.17-1.39-.34-1.45-8.27-10.8-7.58-12.54.92-10.77,19.29,1.05,19.29,6.16,0,7.87-5.92,10.62-6.47l26.48-.91c4,8.03,8.8,14.05,18.63,13.83l23.3,83.47c-6.42,4.37-10.56,10.62-8.86,18.64,4.02,18.87,34.73,16.52,31.22-7.81-.27-1.89-3.07-3.71-.92-5.6l57.02-50.31c20.26,16.39,48.08-3.93,38.64-28.19ZM326.53,350c.53-1.58,7.02-2.73,9.69-4.92,2.06-1.69,2.75-5.87,6.37-5.15,6.68,3.67,56.47,12.4,58.14,14.89.37.55,1.7,8.13.19,8.86l-67.06,33.07c-3.87,1.79-5.5-1.53-8.17-3.66-.92-.73-3.14-.91-3.45-1.31-1.24-1.69,4.94-36.38,4.29-41.78ZM406.19,545.64c-17.59,16.88-36.22,32.64-54.24,49.06-4.05-2.67-11.04-1.42-12.89-5.27l-22.15-81.86c3.48-1.79,5.74-7.32,8.78-7.08l77.69,23.56c3.09,1.78,1.32,6.29,2.01,9.69.77,3.75,3.32,6.6,3.93,10.26-1.16.33-2.25.79-3.14,1.64Z"/>
    <path class="cls-56" d="M722.34,284.39c-2.83,1.42-9.4-4.27-8.52-7.45l-3.82-.15c-13.05-9.47-28.62-13.91-44.31-16.61-1.75-1.98-4.16-3.13-7.22-3.46l-3.45,1.56c-17.05-1.82-33.35-6.18-48.88-13.08l-1.96-3.39c-3.23,2.69-9.63-2.65-10.64-6.39l-3.34.33c-26.69-22.61-49.83-39.11-85.39-20.61-13.26,6.95-26.03,14.76-38.29,23.43-25.49,18.68-53.34,20.04-83.57,14.32l-3.35-2.57c47.33-45.59,127.31-68.71,192.11-61.72,61.93,6.68,118.71,42.61,150.62,95.78Z"/>
    <path class="cls-76" d="M555.23,302.49c2.49-1.65,5.61-1.27,9.35,1.14,4.84,1.82,13.45,5.06,15.13,9.5,9.45,5,16.92,10.96,24.17,18.76,6.53,7.03,15.36,16.67,16.28,25.95l4.29,3.42c10.17,20.2,17.99,41.73,24,63.52.22.8.14,1.7.03,2.62s-.36,1.88-.66,2.81c5.99,8.59,8.97,21.42,8.52,31.93l3.06,2.9,7.36,24.85-.84,4.17,2.78,1.55c2.63,9.11,6.17,17.83,10.63,26.17l-.63,3.15,3.25,1.24c9.23,16.37,24.79,24.76,43.52,20.63l3.26,1.55c1.41-.3,1.71-.36,1.06,1.06-.42,1.27-1.22,2.29-2.55,2.51-28.53,4.75-42.94,1.47-59.33-24.36l.14-3.7-3.21-1.48c-5.21-8.61-9.73-17.58-13.56-26.91l.81-3.54c-1.71-1.26-3.18-2.77-4.19-4.64-4.21-7.72-8.12-19.78-8.58-28.36-4.05-1.91-6.86-11.18-5.32-14.9-8.17-17.72-16.2-35.62-23.21-53.76l-.21-3.71-4.65-4.6c-14.13-28.99-36.1-57.23-70.86-59.09l-3.25-2.29c-4.49,2.11-9.63,3.08-15.41,2.89-6.21,1.75-12.07,2.2-17.58,1.37-.63,1.15-1.37,2.33-2.54,2.98-4.95,2.76-17.9,8.38-23.37,10.29l-3.89-.5c.07,3.62-5.61,5.28-7.45,2.13.51-7.32-.51-22.42-7.45-26.61-3.67-2.7,0-6.03,2.13-2.13,6.56-6.44,20.81-10.39,29.8-8.52,6.72-4.73,17.84-6.05,25.55-3.19,2.97.07,5.2-.75,6.71-2.46,11.35-.11,23.14-.16,34.03,3.15l2.89,2.5Z"/>
    <path class="cls-46" d="M560.55,233.3l2.6,3.44c13.05,74.81,95.07,121.95,166.61,98l4.29.74c.82-.27,2.03-.65,2.45-.14,5.33,6.51,11.23,16.6,13.52,24.62.02.71,0,1.42,0,2.13-.52.8-1.06,1.56-1.72,2.22s-1.27,1.25-2,1.53c-30.46,11.39-63.88,12.19-95.38,4.81l-4.15-3.23-2.15-1.04c-17.19-23.59-40.12-38.59-64.91-53.24-7.43-3.4-16.73-8.54-24.48-10.64-9.32-7.94-14.98-22.51-19.32-34.22-5.15-13.87-9.14-30.52-9.42-42.42,3.25-4.36,13.08-3.03,18.27-1.87,5.14,1.15,14.58,4.15,15.79,9.32Z"/>
    <path class="cls-53" d="M519.04,678.22c1.9-1.73,4.14-2.66,6.7-2.38,26.38.77,55.42,2.51,79.52,13.03,2.78.14,5.61.85,8.52,2.13,2.9.09,2.9.8,0,2.13-3.02,1.52-10.4,9.76-12.77,12.77-.86.42-1.73.8-2.63,1.04-3.03.81-36.51-3.9-42.63-5.07-1.78-.34-3.33-1.29-4.77-2.36l-2.72,1.81c-10.21.17-20.44.53-30.44,2.9l-3.02-1.52c-1.29,3.42-11.95,6.3-14.9,4.26-2.13,3.59-9.94,8.07-13.84,6.39l-1,3.06c-8.11,4.73-15.06,11.03-21.36,17.93l-3.18.3c.46,3.98-4.46,9.6-8.52,9.58-1.67,6.4-6.61,15.38-10.64,20.96-1.4-.16-2.49.26-3.19,1.39.91,5.09-2.6,11.15-7.45,12.77-5.76-3.71-11.31-7.91-17.03-11.71-2.35-2.07-2.33-4.06,1.06-4.26l-.86-3.1c3.7-7.6,7.47-15.19,11.66-22.53l3.04-.98-1.03-2.4c4.7-7.4,9.83-14.6,15.47-21.3l2.59.28-.2-2.9c6.94-7.08,14.78-13.31,23.13-18.65l3.68.27c.2-.73.44-1.44.81-2.08,3.23-5.71,37.89-15.86,46.03-11.76Z"/>
    <path class="cls-62" d="M640.38,581.36c2.67-1.29,3.41-.54,2.13,2.13,16.64,7.39,33.67,8.2,51.46,4.56l16.66-1.37c-.27-3.13,10.65-5.38,14.11-5.81l1.86,1.56c19.21,12.46-.7,18.48-4.26,31.93-.83.67-1.68,1.3-2.6,1.79-9.28,4.97-48.91,2.09-61.58,1.04-10.21-.85-20.44-1.94-30.59-3.25-.91-.12-1.78-.56-2.68-1.03s-1.76-1.09-2.59-1.74c-1.57,1.32-2.16.73-1.06-1.06-5.94-5.37-11.99-10.69-18.16-15.96-12.27-7.13-24.45-14.41-36.54-21.86l-3.84-5.81c-.24-.87-.72-1.9-1.06-3.19,2.8-.14,5.65-.2,8.38.53,23.31,6.24,47.86,12.56,70.38,17.57Z"/>
    <path class="cls-54" d="M741.5,551.55c2,11.17,13.37,17.16-1.75,24.33-6.45,3.06-7.95,1.52-13.15,6.54-.59.57-13.69,3.71-15.97,4.26-18.61,1.36-40.31,1.66-58.9-.63-3.25-.4-6.25-1.06-9.22-2.56-.74-.65-1.49-1.38-2.13-2.13-7-1.46-10.94-15.89-11.89-22.63-1.59-5.79-.82-8.53,2.31-8.24l3.43-.92c28.07,3.26,56.23,4.51,84.47,3.74,7.88-2.24,15.48-2.83,22.8-1.76Z"/>
    <path class="cls-80" d="M593.55,235.43c2.69,3.85,3.87,8.61,3.55,14.28l11.47,21.71-1.18,2.33-3.53.57c-11.96-7.97-22.6-17.72-31.9-29.24-4.66-3.48-8.47-7.41-11.41-11.78-12.42-7.47-19.6-9.36-34.06-7.45-3,2.67-7.09,4.24-12.25,4.72-5.15,2.42-9.94,3.33-14.36,2.73-2.04.52-3.34-1.26-3.9-5.35-12.41,7.13-24.53,14.78-36.34,22.95-13.12,9.69-27.23,11.74-42.78,12.2-1.66,2.92-3.67,2.93-5.32,0l-2.84,2.03c-8.97-.35-17.97-.93-26.81-2.57l-2.29-2.65c-1.54,2.66-5.51.2-6.39-2.13,2.2-2.46,3.22-4.41,6.39-7.45,14.58,1.79,28.21,4.3,43.09,3.18,35.39-2.66,59.81-35.01,92.68-44.63,41.02-12,48.72,7.21,78.17,26.55Z"/>
    <path class="cls-32" d="M792.59,508.98l-4.53,3.18c-22.71,6.51-46.34,13.02-69.98,12.79-3.15-.52-11.08-2.12-9.58-6.39-6.8-3.56-12.55-14.53-15.74-21.89-.14-.33.27-.89.84-1.53.59-2.62,2.97-3.7,7.14-3.25,25.92.75,52.83-5.55,77.85-13.72l6.55-.06c6.49,7.24,15.23,14.3,11.14,25.51-1.16,3.19-2.42,3.47-3.69,5.36Z"/>
    <path class="cls-34" d="M746.82,395.09c-1.17,1.41-2.46,2.86-4.2,3.53-16.58,6.43-55.29,9.38-72.92,6.46-1.83-.3-3.4-1.42-4.84-2.55l-2.02-1.22c-5.15-11.55-10.51-22.85-16.08-33.9,33.87,8.97,70.68,8.13,103.25-5.32.04,12.24-2.47,21.58-3.19,33Z"/>
    <path class="cls-16" d="M722.34,614.35c-2.77,10.47.14,18.7,2.13,28.74l.11,4.02c-27.41,2.62-55.68,1.68-82.59-.46l-4.79-2.49c-2.66,1.46-3.67.54-2.13-2.13-2.83-.3-4.71-2.42-5.66-6.36l-8.01-21.53.89-2.98c33.13,3.95,66.78,8.02,100.05,3.19Z"/>
    <path class="cls-13" d="M489.24,726.11c.68,1.23.87,3.95.68,5.45-2.17,5.82-2.51,12.27-1.8,18.49,2.78,24.28,18.73,31.8,38.92,39.07,1.99.71,4.02,1.86,5.83,2.97l4.55,1.69c7.33,6.71,15.9,11.82,24.68,16.36l1.64,3.24c-20.9,3.87-33.38,3.95-54.28,0-13.25-7.91-23.48-23.33-31.61-36.59-7.61-12.43-16.61-27.88-17.35-42.18,8.59-9.29,14.37-14.88,25.55-21.29,5.97-1.2,5.01,8.81,3.19,12.77Z"/>
    <path class="cls-35" d="M785.14,478.11c-23.33,8.54-48.06,14.11-72.92,15.96-6.19.46-12.63-.96-18.62,1.07-5.68-4.17-8.62-13.47-7.45-20.22-1.63-1.23-2.26-4.72-1.06-6.39-1.19-3.77-.76-5.89,1.3-6.37,23.85,1.04,47.74-1.98,70.84-9.09l5.56.56c5.57,7.81,15.66,17.03,22.35,24.48Z"/>
    <path class="cls-58" d="M428.57,736.76c-4.52,7.56-9.94,18.54-13.84,26.61l-1.82.85c-10.88-5.58-21.62-11.18-32.24-16.82-.45-.35-.73-.38-1.06-1.06-2.61-1.4-3.67-3.17-3.19-5.32-12.6-8.02-25.38-15.83-38.32-23.42l-2.49.91c-.85-.17-13-4.31-13.52-4.81-3.08-3,.26-6.73,4.3-3.55l2.83-2.91c10.08-2.18,19.86-5.26,29.35-9.22l4.01.42c.3-.93.66-.92,1.06,0l6.3,1.98c18.28,12.16,37.1,23.39,56.46,33.67l2.16,2.67Z"/>
    <path class="cls-59" d="M604.19,241.82c2.46,1.63.77,5.42-.37,7.9s47.27,17.14,52.46,14.94l3.26,2.7c1.41.18,2.54-.38,3.44-1.55,14.41,2.5,29.07,5.4,41.81,12.94l1.58,3.51c4.07-.09,7.75,2.02,11.04,6.34,11.3,14.49,21.1,30.12,29.4,46.87,2.05,9.02,2.96,15.18,3.19,24.48l-15.97-24.48c-3.62-2.78-6.46-6.77-8.52-11.97-4.01-4.76-6.49-9.64-7.45-14.64l-3.64-1.17c-10.94-14.09-26.49-22.47-44.22-23.15-17.62.66-34.99-.72-52.1-4.13l-4.35-3.49c-1.81,2.91-6.64.12-6.39-3.19l-12.3-23.45-1.53-14.87c2.9,1.9,7.62,4.79,10.64,6.39Z"/>
    <path class="cls-27" d="M748.95,424.89l.65,3.5c-23.23,6.17-49.78,9.5-73.03,7.14-.77-.29-1.41-.62-1.61-1.13-3.66-9.14-7.84-20.55-10.8-29.9-.17-.53.19-1.22.7-1.96,27.43,2.57,55.68,1.17,81.96-7.45-.55,8.74-.07,21.35,2.13,29.8Z"/>
    <path class="cls-71" d="M762.78,453.63c-17.3,5.3-35.65,9.41-53.76,10.63-7.4.5-14.98-.5-22.38,0-3.03.21-1.11,2.63-1.56,4.27-4.37-10.16-7.41-22.04-8.52-33-.51-3.36,1.36-2.01,3.4-1.83,21.12,1.91,44.98-1.64,65.62-6.37,1.88-.43,3.98.55,3.35-2.45,1.77,6.8,9.68,22.91,13.84,28.74Z"/>
    <path class="cls-75" d="M522.23,546.23c-.58.63-1.45,1.56-2.07,1.32-7-2.63-17.61-8.64-22.41-14.09-2.07.69-2.48-.39-1.06-2.13-4.85-6.33-9.35-12.96-13.5-19.88l-16.3-17.37c-12.9-9.7-26.71-19.75-43.64-20.22,28.13-7.22,62.34-4.05,80.27,21.38,10.85,15.39,14.15,33.19,18.72,51Z"/>
    <path class="cls-70" d="M635.06,642.03c.47.73,1.52,1.39,2.13,2.13l4.63,1.95c7.71,7.31,18.19,10.1,28.52,11.13,10.73.37,49.19,3.14,53.85,13.53.46,1.03.55,2.09.28,3.19-.13.31.14.79,0,1.06-3.14,3.33-13.55,5.51-16.5,2.13-.22.83-.58,2.06-1.24,2.13-7.12.69-26.68,1-33.39,0l-1.56-2.13c-1.27,2.23-4.41,2.32-9.44.25l-3.87-.25c-21.94-10.62-40-21.25-57.48-38.32-.55-.92-.83-2.29-.07-2.71,2.82-1.55,28.02,4.32,34.13,5.91Z"/>
    <path class="cls-81" d="M668.05,523.88c15.76,24.92,32.27,34.99,61.73,25.55,1.02-1.7,4.34-2.68,6.39-2.13-1.34-2.93,3.68-4.67,5.32-2.13.23,2.01-.34,4.5,0,6.39-36.58,6.27-74.15,4.57-110.7-1.06-1.65-.34-1.91-.86-.57-1.6l-.5-12.24c-3.65-3.23-6.34-12.27-5.32-17.03.08-.82.4-2.07.92-2.05,7.03.25,34.3,2.04,39.3,3.83l3.42,2.47Z"/>
    <path class="cls-77" d="M601,705.89c-9.82,12.49-13.78,26.7-10.64,42.58.7,3.81-5.68,7.73-8.52,5.32l-3.53.24c-10.82-7.47-19.82-17.59-25.8-29.32-3.12-6.11-7.36-14.44-4.73-20.95-1.33-2.4-.27-3.82,3.19-4.26,17.28.56,33.06,3.87,50.03,6.39Z"/>
    <path class="cls-61" d="M326.38,710.15c-1.79.46-3.82-1.27-3.2,2.12,5.2.56,10.9,2.5,14.91,5.33,13.04,7.94,25.81,15.74,38.32,23.42,3.83,3.53,2.11,3.11,3.19,5.32-8.11-2.34-15.29-6.53-23.42-9.04-8.87-2.74-18.48-4.62-27.67-5.86-9.04.07-18.08.04-27.11-.09-2.44-.81-20.91-14.63-21.48-16.25-.61-1.73-.68-2.13.69-3.88,7.33-7.83,14.14-14.36,22.35-21.29l2.72.32c6.92,6.4,13.92,12.47,20.99,18.23l-.29,1.68Z"/>
    <path class="cls-35" d="M440.27,262.04c.73-.18,2.07-.41,2.25.02,5.13,12.41,12.36,34.09,15.35,47.09l-1.64,1.85c-1.05.42-2.7-1.02-2.13,2.13-7.82-4.72-19,2.02-26.61,5.32-.81-.54-1.59-1.11-2.26-1.78-4.66-4.65-16.38-44.54-14.75-50.86.24-.93.62-1.82,1.05-2.7,1.77.06,3.55,0,5.32,0,7.35-.38,14.66-1.12,21.91-2.21l1.5,1.15Z"/>
    <path class="cls-48" d="M418.99,661.19c.91.3.9.66,0,1.06-1.53,4.7-5.03,8.63-10.51,11.8-4.39,4.5-9.05,6.95-13.98,7.36-.88.87-2.43,1.3-3.68,1.19-4.1-.36-35.28-23.24-37.29-25.67-1-1.21-1.42-2.71-1.6-4.26,8.81-6.45,17.73-12.8,26.61-19.16l2.07.4c11,8.98,23.25,17.08,36.02,23.71l2.36,3.57Z"/>
    <path class="cls-29" d="M394.51,681.41c.93.3.92.66,0,1.06.38.73.79,1.94.34,2.22-3.08,1.93-27,14.5-28.6,14.59l-2.61-.85h-1.06l-3.46.1s-10.99-8.08-32.98-24.25l.25-2.46c8.46-6.55,16.92-12.84,25.55-19.16,7.78,7.13,17.09,13.48,25.84,19.39,5.03,3.41,10.81,8.32,16.73,9.34Z"/>
    <path class="cls-14" d="M438.15,638.83c.94.2.9.56,0,1.06.67.64,1.62,1.58,1.35,2.26-1.65,4.08-13.96,16.28-17.86,19.44l-2.65-.41c-12.71-6.21-26.31-14.88-37.4-23.8-1.4-1.13-3.2-1.48-3.04-3.88,8.7-6.23,17.89-11.9,26.61-18.09,9.95,5.64,20.83,12.57,30.72,19.27.57.39.96,1.05,1.35,1.77s.68,1.55.92,2.37Z"/>
    <path class="cls-39" d="M589.29,665.44c5.62,1.75,12.29,6.57,18.13,9.01,23.65,9.9,57.2,18.19,82.8,19.48,2.06.1,3.6.73,4.44-1.88,2.99-3.27,7.22,1.02,2.13,3.19-18.88,5.59-33.05,4.63-52.51,1.95-8.18-1.12-18.31-4.48-25.89-5.09-2.04-.17-2.88.13-4.62,1.01-.14-.61.21-1.85,0-2.13-2.99-.45-5.12-1.52-6.39-3.19-9.89-.48-47.89-19.84-49.81-27.58-.18-.72-.22-1.47-.22-2.23l3.48-1.24c9.99,1.49,19.48,4.39,28.45,8.69Z"/>
    <path class="cls-65" d="M637.19,644.16l29.23,2.17c17.7-1.1,37.04,1.79,54.4-1.09,2-.33,4.26,1.2,3.65-2.15,2.72,13.72,5.98,16.54,0,30.87-23.82-23.9-65.31-2.85-87.28-29.8Z"/>
    <path class="cls-52" d="M509.46,813.39c-10.11-1.91-17.01-4.08-26.61-7.45-16.85-8.43-26.26-26.95-30.37-44.71-1.23-5.31-2.38-11.97-.49-17.02,2.75-3.59,5.5-6.32,8.52-9.58,10.24,30.2,26.53,56.23,48.96,78.76Z"/>
    <path class="cls-69" d="M721.27,526.01c1.6-1.84,7.16-1.38,6.92,2.13.22-.83.56-2.04,1.21-2.13,3.28-.42,21.11-.58,23.88,0l1.52,2.13c-.1-3.9,11.68-6.23,10.11-1.06-7.08,3.15-15.31,4.46-20.05,11.34-1.25,1.82-2.02,5.72-3.36,6.75-.23.17-4.19,1.61-5.32,2.13-2.61.23-5.09.58-7.45,1.06-24.63,5.11-38.04-3.17-50.03-23.42.21-.84.55-2.1,1.2-2.16,5.36-.48,26.01-1.56,30.09-.66,3.6,2,7.36,3.3,11.28,3.88Z"/>
    <path class="cls-32" d="M411.54,263.11c2.53,19.05,8.66,37.67,15.97,55.35-10.56,4.58-13.37,6.93-25.55,9.58-5.55,1.63-8.42-2.7-7.45-7.45l.08-1.61c4.26-2.63,7.78-6,10.56-10.1.64-2.03,1-4.16,1.06-6.39-1.54-1.58-1.94-4.05-1.2-7.4-1.17-3.2-1.12-5.7.14-7.5-1.69-9.29-13.05-15.57-22.34-14.64l-1.07-1.32c-3.45-.17-5.1-10.07-2.13-11.71,9.61,2.2,22.05,2.87,31.93,3.19Z"/>
    <path class="cls-15" d="M362.57,698.44c-11.35,5.82-23.94,8.58-36.19,11.71-7.13-6.99-18.43-11.56-23.42-20.22,7.5-6.32,15.66-12.09,23.42-18.09l36.19,26.61Z"/>
    <path class="cls-22" d="M571.19,783.59c.29-.79,1.94-1.33,2.77-1.27,10.64,5.34,21.59,9,32.86,10.97l1.62,2.01c-15.43,10.4-26.25,14.68-44.7,18.09-10.86-5.55-22.61-12.12-30.87-21.29h1.06l1.86-2.03c10.93.44,21.41-2.11,31.46-7.65,1.42.04,2.9.11,3.93,1.16Z"/>
    <path class="cls-7" d="M454.11,613.29c.61,4.76-1.09,9.62-5.1,14.59-2.67,5.87-6.29,9.52-10.87,10.96-9.69-6.87-20.37-12.49-29.93-19.56-1.48-1.09-3.2-1.45-3.06-3.86,8.57-6.08,18.47-12,26.61-18.09,6.11,1.78,15.34,8.16,20.78,12.52l1.57,3.45Z"/>
    <path class="cls-32" d="M476.46,404.67c.97,2.34.68,6.03,0,8.52-8.87-4.67-27.46-11.2-37.25-12.77-3.95-1.43-9.6-7.9-7.45-11.71,6.23-5.48,15.82-16.41,20.22-23.42,6.09,5.04,11.28,11.17,15.57,18.38,6.28,6.09,8.61,12.27,8.91,21Z"/>
    <path class="cls-35" d="M469.01,337.61l3.4-.93c1.45.25,14.45,21.22,13.63,25.41l.2,3.59c-6.05,11.94-9.31,24.93-9.78,38.98-1.1-11.05-5.15-12.36-11.07-20.33-4.63-6.24-9.07-12.62-13.42-19.05,4.71-7.5,8.95-16.59,9.58-25.55,2.31-.18,5.4-1.16,7.45-2.13Z"/>
    <path class="cls-43" d="M496.69,531.33c.32.72.76,1.4,1.06,2.13,3.59,2.67,5.04,6.21,6.21,10.42,3.56,9.12,7.74,20.58,7.62,30.02-.39.73-1.14,1.75-1.64,1.54-8.64-3.56-26.81-13.02-34.43-18.23l-.12-2.47-1.73-2.01c1.85-4.5,2.78-9.15,2.79-13.96,1.42-5.64,2.59-12.3,2.13-18.09l2.12-1.22c6.36,2.91,11.68,6.87,15.98,11.87Z"/>
    <path class="cls-26" d="M379.6,259.91l2.13,11.71-.43,1.49c-6.8,1.15-15.51,6.25-16.6,13.41l1.25,2.41c-2.34,5.05-2.01,10.41-.63,15.69l-1.68,2.12c4.74,11.67,17.84,17.2,29.59,12.84l1.28,1c3.58,1.91,1.77,8.3,7.45,7.45-14.46,3.14-23.51,5.22-37.25-2.13-6.62-10.21-10.51-26.04-10.64-38.32,4.63-13.78,9.82-19.35,19.16-29.8,2.49-.72,5.01,1.81,6.39,2.13Z"/>
    <path class="cls-20" d="M594.61,761.24c.32,6.94-13.62,19.14-19.82,21.61l-3.6-.32c-5.07.33-9.96-1.92-14.68-6.74-4.81-3.71-12.53-9.79-13-15.61l2.95-1.38c11.27,3.16,22.37,0,32.25-5.7l3.12.69c2.95-1.69,5.96-2.85,8.52-5.32.6,3.02,2.95,9.85,4.26,12.77Z"/>
    <path class="cls-40" d="M482.85,805.94c-11.23-3.95-18.31-7.39-28.74-12.77l-4.99-4.59c-3.91-7.51-7.56-14.85-10.98-22.02,4.52-8.23,8.04-14.78,13.84-22.35,1.38,5.94,1.52,11.87,2.85,17.91,3.87,17.65,14.28,32.49,28.02,43.83Z"/>
    <path class="cls-53" d="M293.03,374.51c-10.29,10.36-31.51-.66-24.32-17.41,9.31-21.72,41.7-.08,24.32,17.41Z"/>
    <path class="cls-5" d="M608.45,795.3c-4.46.54-8.33-.73-12.52-1.85-4.79-1.29-23.4-9.86-24.74-9.86-.93-.3-.92-.66,0-1.06,9.15-5.28,17.64-12.34,23.42-21.29,4.62,10.37,13.42,21.08,21.26,29.27-1.49,3.3-5.66,3.6-7.43,4.79Z"/>
    <path class="cls-36" d="M696.79,695.25l1.06-2.11c-1.22.12-2.16-.73-3.19-1.08-12.55-4.28-24.27-9.13-36.19-14.9,3.27-3.11,10.25,0,13.3,0h36.19l16.5-2.13c-6.08,12.43-15.04,16.48-27.67,20.22Z"/>
    <path class="cls-55" d="M455.18,576.04c3.53,1.19,11.81,4.49,11.71,8.52.92.36.92.71,0,1.06.46,9.03-5.35,21.2-11.71,27.67-.3.91-.65.9-1.06,0-6.21-3.7-12.96-8.3-18.87-12.53-1.37-.98-2.84-1.73-3.48-3.43,8.27-6.19,16.61-13.54,23.42-21.29Z"/>
    <path class="cls-50" d="M328.51,731.44c-7.88,0-16.12.17-23.94,1.08-6.17.71-31.77,7.02-34.89,6.21-10.21-2.62,1.26-17.6,4.58-21.63,1.95-2.36,4.54-3.95,6.35-5.89-.09,2.41,1.48,2.84,2.86,4.06,5.41,4.77,18.74,16.39,25.35,16.25,7.97-.18,10.99-1.26,19.69-.08Z"/>
    <path class="cls-26" d="M792.59,508.98c-7.83,11.56-15.76,12.8-27.67,18.09-1.98-2.44-7.89,1.06-10.11,1.06h-26.61c-.76,0-4.93-1.81-6.92-2.13-1.57.16-2.64-.2-3.19-1.06,13.01-2.93,26.33-4.17,39.39-6.91,11.9-2.49,23.34-6.2,35.11-9.06Z"/>
    <path class="cls-44" d="M722.34,284.39c10.91,11.94,20.91,35.42,24.48,51.09-2.54-1.24-3.85-3.6-5.35-5.83-11.7-17.43-16.39-34.97-35.1-47.39-.53-.76-.65-1.55-.28-2.36l7.73-2.96c2.45,1.85,6.52,5.27,8.52,7.45Z"/>
    <path class="cls-79" d="M301.63,266.57c20.65-5.31,20.89,25.35,3.22,22.94-13.04-1.78-13.43-20.31-3.22-22.94Z"/>
    <path class="cls-79" d="M284.59,558.18c16-3.29,19.63,20.54,4.8,22.95-15.77,2.57-19.39-19.95-4.8-22.95Z"/>
    <path class="cls-79" d="M207.99,443.19c13.56-1.55,17.03,20.17,4.82,22.99-18.66,4.3-20.68-21.18-4.82-22.99Z"/>
    <path class="cls-19" d="M475.4,554.75c1.51,9.54-2.34,22.39-8.52,29.8-3.25-2.63-10.55-4.22-11.71-8.52,9.1-10.36,17.88-23.74,21.29-37.25,2.35,4.17-.09,11.29-1.06,15.97Z"/>
    <path class="cls-49" d="M496.69,531.33l-18.09-10.64c-.35-4.4-2.79-11.94-4.81-15.95s-5.32-6.59-6.9-10.66c16.7,12.57,21.25,17.77,29.8,37.25Z"/>
    <path class="cls-38" d="M454.11,793.17c-9.14-4.71-14.9-8.35-23.42-13.84,2.64-4.1,5.11-8.51,7.45-12.77,2.97-2.03,1.59-.76,2.64,1.04,4.8,8.27,8.18,17.47,13.33,25.57Z"/>
    <path class="cls-3" d="M364.7,325.9c-16-8.56-15.91-22.65-10.64-38.32l10.64,38.32Z"/>
    <path class="cls-42" d="M226,382.01c-5.37,6.53-15.83-1.24-10.82-8.17,5.53-7.66,16.01,1.86,10.82,8.17Z"/>
    <path class="cls-47" d="M250.52,309.03c8.58-2.35,12.14,12.42,2.81,13.41-8.43.89-10.66-11.26-2.81-13.41Z"/>
    <path class="cls-64" d="M222.86,534.69c9.67-1.75,10.58,13.04,1.68,13.4-7.27.29-9.63-11.95-1.68-13.4Z"/>
    <path class="cls-25" d="M439.21,400.41c-6.9-1.11-15.32-1.15-22.35-1.06,4.89-3.56,10.35-6.63,14.9-10.64l7.45,11.71Z"/>
    <path class="cls-60" d="M414.73,763.37c-.55,1.15-.59,2.98-1.06,4.26-9.62-6.38-24.72-13.71-33-20.22,2.07-1.76,2.71-.41,4.36.37,9.9,4.7,19.19,12,29.7,15.6Z"/>
    <path class="cls-33" d="M566.94,465.34c2.88-.9,4.13.81,2.13,3.19,5.2,5.93,10.62,11.68,16.27,17.23,14.26,7.48,26.73,16.67,37.41,27.57l-.46,3.1c.38,1.03.54,2.46-.21,2.79-6.48,2.82-67.14-20.66-76.68-26.63-2.03-1.27-3.68-2.97-5.07-4.9-12.19-28.06-35.79-58.55-62.8-73.44-.72-2.01-.88-14.45-.32-15.16.31-.39.82-.62,1.39-.8l2.9.85c23.74,27.29,52.22,49.36,85.44,66.2Z"/>
    <path class="cls-9" d="M622.28,516.43c3.07-.38,3.72.52,2.13,3.19,2.78,5.58,4.28,10.89,5.32,17.03l.37,13.51c-7.92.74-16.08-.25-24.46-2.97-10.07-2.32-44.75-12.14-50.63-17.8-.72-.69-1.34-1.49-1.92-2.32-3.48-13.38-7.27-26.7-12.77-39.38,25.06,12.69,49.67,22.31,77.06,28.86,1.42.34,3.99,1.84,4.9-.12Z"/>
    <path class="cls-2" d="M553.1,527.07c24.51,10.05,50.19,19.23,76.64,22.36v-12.78c.9,5.32.78,8.5,1.06,13.84,0,.12-.92.66-.84,2.28.41,9.08,4.41,21.61,10.42,28.59-1.65,1.74-5.61.16-7.79-.2-24.14-3.99-47.85-10.02-70.98-17.89-3.16-12-5.4-24.21-8.52-36.19Z"/>
    <path class="cls-57" d="M530.75,583.49c9.68,33.05,28.73,63.77,58.54,81.96-9.59-2.99-21.84-4.44-31.93-7.45-2.05,2.02-2.6,1.77-2.13-1.06-8.55-4.39-28.98-31.89-29.05-39.94,0-.88.13-1.76.32-2.64-7.07-8.03-11.78-22.25-14.56-32.9l.73-4.35c3.77-4.2,15.31,2,18.09,6.39Z"/>
    <path class="cls-2" d="M621.22,610.1c.22.38.86.67,1.06,1.06,5.04,9.44,7.07,22.13,12.77,30.87-1.08,2.1-3.71.75-5.32.55-7.93-.98-15.74-2.69-23.59-4.13-1.56-.28-4.15-1.62-5.16.39-12.09-11.81-20.72-23.91-27.67-39.38.06-.89.55-2.04,1.16-1.92,9.43,1.86,18.96,4.05,28.35,6.3,7.06.67,13.19,2.76,18.39,6.27Z"/>
    <path class="cls-28" d="M621.22,610.1l-47.9-10.64c-5.27-11.73-7.37-20.9-10.64-33,18.76,16.56,45.19,20.98,58.54,43.64Z"/>
    <path class="cls-78" d="M522.23,546.23c3.14,12.2,5,25.24,8.52,37.25-5.91-2.02-11.69-6.17-18.09-6.39-2.98-.34-3.23-1.13-1.06-3.19-4.82-13.41-8.32-27.25-13.84-40.45l24.48,12.77Z"/>
    <path class="cls-18" d="M394.26,421.97c-34.21,4.23-20.31,57.67,12.22,43.08,23.15-10.38,12.6-46.17-12.22-43.08ZM384.23,456.45c-15.13-16.11,8.55-38.89,24.16-24.69,17.67,16.09-8.71,41.15-24.16,24.69Z"/>
    <path class="cls-9" d="M497.75,374.87l-.53,2.63c-7.62,4.23-13.55,11.42-16.16,19.75l-2.46,1.04c-1.22,5.51-1.32,10.14-1.06,15.97-.41-.23-.72-.88-1.06-1.06-.19-2.8.28-5.73,0-8.52-1.65-15.11.83-29.91,9.58-42.58.3-.93.66-.92,1.06,0,3.7-.99,11.98,9.17,10.64,12.77Z"/>
    <path class="cls-80" d="M658.47,256.72c10.23-.24,10.45,10.21,1.06,10.64-9.56-1.71-19.28-2.42-28.75-4.78-11.23-2.79-20.45-7.52-30.85-12.27-.43-1.65,1.62-.71,2.16-1.73,1.05-1.99.89-4.73,2.09-6.77,19.03,10.03,33.96,11.31,54.28,14.9Z"/>
    <path class="cls-8" d="M713.82,276.94c-.03,4.4-4.93,3.23-7.45,5.32-14.1-9.36-30.5-11.98-46.83-14.9,3.95.14,5.42-8.49,4.26-9.58-.44-.41-4.65.88-5.33-1.06,21.4,3.78,37.51,6.79,55.35,20.22Z"/>
    <path class="cls-34" d="M512.65,346.13c.26-.95.62-.93,1.06,0l2.8,1.05c24.75,34.98,64.47,58.8,103.64,74.52l3.14.94c4.16,6.82,7.73,13.96,10.7,21.42,2.91,5.64,3.31,9.83,5.32,14.9-1.92.66-3.95,1.26-6,.99-17.41-2.33-57.25-17.69-71.11-28.21-1.64-1.24-2.85-2.89-3.79-4.71-1.6,1.33-2.16.72-1.06-1.06l-2.84-3.54c-5.22-24.71-22.98-55.69-52.68-46.35l-3.02-1.21c-.24.96-.6.94-1.06,0l-10.64-12.77c-1.84-4.44,6.3-9.83,10.11-12.22,4.02-2.53,11.6-7.18,15.43-3.74Z"/>
    <path class="cls-9" d="M639.31,458.95c4.26,10.74,8.26,22.26,12.77,33l-2.85,1.1c-26.54-1.76-52.3-11.53-76.28-20.77l-3.89-3.75c-.5-1.06-1.74-2.19-2.13-3.19l-3.04-2.18c-2.92-10.77-5.23-21.68-6.91-32.74l1.44-3.41c24.94,15.05,52.08,26.68,80.89,31.93Z"/>
    <path class="cls-34" d="M526.49,225.85c3.43-.6,1.82,1.74,2.08,3.73,3.47,26.99,12.54,49.9,26.66,72.91-13.42-3.64-29.91-4.13-43.64-3.19-.48-1.8.46-2.77,2.83-2.9-8.28-17.97-13.53-37.07-17.77-56.36l1.1-4.61c-1.73-2.4-.47-3.62,2.13-2.13,8.07-3.43,17.93-6.3,26.61-7.45Z"/>
    <path class="cls-72" d="M652.09,491.95c4.27,10.17,10.1,22.65,15.97,31.93l-43.64-4.26c-.52-1.04-1.46-2.16-2.13-3.19-14.22-22.02-39.84-19.49-53.22-47.9l28.19,10.66c17.85,5.69,36.11,10.76,54.84,12.75Z"/>
    <path class="cls-27" d="M497.75,235.43c5.03,21.28,9.58,42.92,20.21,62.28l-6.38,1.59c-8.52.58-17.19,1.58-25.55,3.19-.83.17-2.12.28-2.33-.28-5.8-15.64-11.78-33.94-16.33-50l1.63-1.88c3.08-4.64,21.83-15.59,26.32-15.35.81.04,1.61.23,2.42.45Z"/>
    <path class="cls-74" d="M531.81,320.58l4.54,2.89c17.87,25.57,42.86,45.28,70.6,59.24l3.63,3.86c9,18.59,17.26,37.75,23.42,57.48-3.66-7.09-9.44-15.51-13.84-22.35l-1.97-.43c-24.49-33.43-55.29-73.77-101.19-73.23l-3.28-1.91c-.35.03-.72-.05-1.06,0-4.58-.8-9.08-8.02-11.64-12.31-2.93-3.34-3.66-6.33-2.2-8.97,10.71-2.94,21.89-4.59,33-4.26Z"/>
    <path class="cls-71" d="M486.04,302.49c-9.89,1.91-20.44,4.77-29.8,8.52l-15.97-48.96c.13-.58.29-1.13.6-1.59.77-1.15,22.65-10.27,25.4-11.14l2.74,1.02,17.03,52.15Z"/>
    <path class="cls-34" d="M610.58,386.58c-31.54-14.41-59.63-36.9-78.76-65.99,41.34,1.22,62.52,32.43,78.76,65.99Z"/>
    <path class="cls-39" d="M673.37,433.41c-.32.79-.81,1.97-1.47,1.96-2.55-.04-20.63-2.11-22.15-2.77l-1.93-2.39c-7-23.96-15.38-50.61-27.67-72.38.37-.75,1.04-1.83,1.61-1.68,2.72.69,18.37,6.02,20.03,7.17,4.1,2.82,9.68,13.74,12.05,18.38,3.23,6.34,6.08,12.83,8.9,19.38,1.6,3.71,11.79,28.99,11.51,31.08-.06.45-.43.85-.88,1.25Z"/>
    <path class="cls-57" d="M646.77,367.42c6.97,10.61,13.23,23.39,18.09,35.12,4.13,9.94,8.6,22.68,11.71,33,3.26,10.81,5.41,22.1,8.52,33,.54,1.89.51,4.51,1.06,6.39-.24,12.13-7.75-4.72-4.26-10.64-5.64-8.59-8.77-20.6-8.52-30.87-3.57-11.32-22.97-63.62-31.66-67.86l-21.56-7.71c-9.98-17.67-24.15-32.79-40.45-44.7,28.61,13.08,49.48,27.51,67.06,54.28Z"/>
    <path class="cls-23" d="M708.5,518.56c2.73,2.34,6.31,4.88,9.58,6.39,1.04.48,2.02.98,3.19,1.06-1.32-.21-5.05,1.21-8.11-1.82l-34.46.75c-6.81-11.5-8.57-18.68-12.77-30.87l1.64-2.02c4.74-.59,20.72-.83,23.92,2.12,3.84,8.84,8.85,16.78,15.01,23.84l2.01.54Z"/>
    <path class="cls-24" d="M681.89,464.28c1.26,4.87,2.51,9.9,3.2,14.9l1.05-4.25c2,6.78,4.71,13.7,7.45,20.22,3.94,9.39,7.01,16.63,14.9,23.42-1.34,2.68-4.51-1.8-5.29-2.7-3.12-3.61-11.81-19.54-12.83-20.17-4.86-3-18.51-.97-24.46-1.61-3.89-11.28-6.3-20.7-9.58-31.93.29-.8.72-1.99,1.38-2.02,3-.16,20.37,1.16,22.84,1.9l1.33,2.25Z"/>
    <path class="cls-71" d="M512.65,346.13c-9.46,1.24-20.15,8.21-25.55,15.97h-1.06c-4.25-7.49-9.21-14.59-13.84-21.87-.88-1.38-.91-3.11-3.19-2.61,9.95-4.7,18.99-9.8,29.8-12.77,2.83,7.89,9.09,14.48,13.84,21.29Z"/>
    <path class="cls-73" d="M673.37,433.41c3.18,10.09,5.85,20.62,8.52,30.87l-25.55-2.13c-3.09-10.58-5.44-21.43-8.52-31.93l25.55,3.19Z"/>
    <path class="cls-10" d="M736.17,547.3c-1.8.82-4.42,1.5-6.39,2.13l-1.06-1.06c1.76-.36,5.66-3.68,7.45-1.06Z"/>
    <path class="cls-63" d="M607.38,273.75c1.86.91,4.69,2.6,6.39,3.19,26.77,25.57,61.99,39.9,99.81,30.82l4.5,1.12c6.14,8.01,12.11,17.34,15.97,26.61-75,27.8-162.63-22.93-173.5-102.18,18.67,11.23,25.82,30.24,46.83,40.45Z"/>
    <path class="cls-52" d="M555.23,656.93c.71.21,1.41.85,2.13,1.06,13.87,14.21,32.54,21.42,50.03,29.8,1.04,1.05.33,1.41-2.13,1.06-26.61-6.42-58.9-12.29-86.22-10.64l-6.96-1.05c-24.62-11.54-49.18-23.14-73.68-34.8l-.25-2.47c.08-.33-.06-.72,0-1.06,6.64-7.2,12.19-16.49,15.97-25.55.26.16.8-.15,1.06,0l4.36.9c28.52,14.62,57.45,28.82,88.25,38.22l7.44,4.53Z"/>
    <path class="cls-4" d="M514.78,702.7l2.4.53c4.2,15.26,9.86,29.85,16.76,44.18,2.02.45,3.62,2.11,4.79,4.99,3.88,2.68,5.48,5.27,4.79,7.78,8,8.81,16.6,17.31,27.67,22.35v1.06c-3.22,0-16.68,7.36-23.16,8.24-4.19.57-9.85.55-14.09.28-4.71-.96-7.51-3.3-10.98-6.23-10.28-8.7-17.76-21.41-24.08-32.94-3.62-6.6-10.19-18.68-9.15-25.92.05-.32.28-.61.57-.89-.47-7.53,2.72-13.92,9.58-19.16,6-2.27,8.73-2.88,14.9-4.26Z"/>
    <path class="cls-21" d="M519.04,678.22c-15.8.95-33.17,5.99-46.83,13.84l-3.09.7c-16.69-9.33-33.37-18.67-50.05-28.02l-.07-2.48c.18-.17-.18-.89,0-1.06,3.88-3.78,18.08-16.93,19.16-21.29l80.89,38.32Z"/>
    <path class="cls-12" d="M394.51,682.47l5.97,1.44c15.51,9.27,31.04,18.12,46.59,26.53l-1.47,2.9c-5.05,5.58-13.13,16.91-17.03,23.42-22.44-11.23-44.86-23.23-64.93-38.32l30.87-15.97Z"/>
    <path class="cls-45" d="M418.99,662.25l53.22,29.8c-8.53,4.9-20.03,14.01-26.61,21.29.21-2.9-1.72-2.62-3.41-3.51-16.17-8.59-32.61-16.95-47.68-27.35v-1.06c8.35-5.46,17.27-12.26,24.48-19.16Z"/>
    <path class="cls-20" d="M550.97,699.5c-1,1.46-2.12,2.85-3.19,4.26l-.7,4.53c-7.5,10.55-14.12,23.28-11.56,36.58l-1.58,2.53c-5.44-5-7.56-12.88-11.16-19.18l-8-25.53c13.68-3.06,21.99-3.66,36.19-3.19Z"/>
    <path class="cls-37" d="M499.88,706.96c2.04.42-.6,3-1.1,3.69-2.83,3.91-8.64,10.64-8.48,15.47-.3.93-.66.92-1.06,0,.36-3.86-.45-9.88-3.19-12.77,5.03-2.88,8.51-4.37,13.84-6.39Z"/>
    <path class="cls-51" d="M613.77,690.99c-3.2.7-6.06-1.54-8.52-2.13l2.13-1.06c1.79.86,5.46,1.95,6.39,3.19Z"/>
    <path class="cls-65" d="M710.63,586.68c-19.57,4.74-51.73,11.15-68.12-3.19l68.12,3.19Z"/>
    <path class="cls-67" d="M499.88,233.3c-.63.27-1.46,1.82-2.13,2.13-10.34,4.68-18.9,10.01-28.74,14.9-8.12,4.04-20.01,9.85-28.74,11.71-7.59,1.61-15.68,1.09-23.42,1.06,5.77-1.71,12-1.37,17.94-2.82,3.3-.8,7.03-2.29,10.11-3.72,17.8-8.25,34.55-23,52.31-31.77l2.65,8.51Z"/>
    <path class="cls-32" d="M533.94,792.11c-.35-.02-.71.03-1.06,0-29.26-2.73-51.31-25.41-46.56-55.61.54-3.44,2.63-7.22,2.92-10.38h1.06c.21,6.31,11.69,28.81,15.52,35.04,7.12,11.58,17.01,23.26,28.12,30.95Z"/>
    <path class="cls-30" d="M376.41,741.02c-.99,2.16-4.5-.6-5.64-1.28-11.37-6.74-21.9-14.55-32.67-22.14,6.8,1.67,14.12,6.4,20.13,10.2s12.81,8.26,18.18,13.21Z"/>
    <path class="cls-17" d="M718.08,308.87c-31.63,8.13-63.72,2.43-89.76-17.21-4.99-3.76-11.91-9.1-14.55-14.72,39.88,13.88,72.07-10.15,104.31,31.93Z"/>
    <path class="cls-68" d="M581.84,753.79c-12.7,7.29-23.6,10.94-38.32,6.39-4.16-4.58-7.65-5.85-9.58-12.77-4.4-15.74,4.67-31.6,13.84-43.64,3.17,20.2,16.83,39.24,34.06,50.03Z"/>
    <path class="cls-31" d="M405.16,287.58c-5.23-18.91-34.38-19.74-40.46-1.05-3.64,7.56-2.98,12.33-1.07,20.21,6.92,17.84,34.33,19.93,40.46,1.07,1.97-.81,2.78-3.32,2.13-5.31,1.46-6.09,1.34-9.05-1.07-14.92ZM391.29,312.58c-26.01,9.96-33.37-32.43-6.92-32.96,18.71-.37,24.42,26.25,6.92,32.96Z"/>
    <path class="cls-41" d="M404.09,307.81c1.43-1.4,1.9-.8,1.06,1.06-2.32,5.12-5.33,9.34-10.64,11.71-12.46,5.55-27.59-.41-30.87-13.84,9.07,15.47,31.44,18.13,40.45,1.06Z"/>
    <path class="cls-34" d="M381.73,271.62c10-1.14,17.63,3.52,22.8,11.79.62.99,2.82,3.54.61,4.18-7.1-17.29-32.41-17.78-40.45-1.06-2.22-.66,0-3.17.62-4.17,3.24-5.36,10.09-10.01,16.41-10.73Z"/>
    <path class="cls-66" d="M405.15,308.87l-1.06-1.06c1-1.89,1.62-3.19,2.13-5.32,2.29,2.33-.15,4.37-1.06,6.39Z"/>
    <path class="cls-22" d="M511.59,573.91c.38,1.06.69,2.14,1.06,3.19,4.28,12,8.5,25.81,13.84,37.25l-1.81,1.49c-19.18-9.25-38.37-18.5-57.57-27.76l-.22-2.47c.11-.32-.11-.75,0-1.06,3.35-9.82,6.39-19.63,8.52-29.8l36.19,19.16Z"/>
    <path class="cls-13" d="M526.49,614.35c7.21,15.46,17.38,29.93,28.74,42.58-35.21-10.52-68.44-25.03-100.05-43.64,3.78-9.26,8.39-18.21,11.71-27.67l59.61,28.74Z"/>
    <path class="cls-6" d="M557.36,425.96c.42.26.71.85,1.06,1.06,2.82,12.23,4.02,26.67,8.52,38.32-.93,1.39-5.19-1.18-6.26-1.73-23.17-11.88-47.86-29.19-66.68-47.21-5.56-5.32-11.89-11.22-15.41-18.12,2.11-9.52,10.18-19.37,19.16-23.42.29-.13.74.12,1.06,0l2.36,1.09c13.66,19.25,34.16,32.99,53.69,45.93l2.49,4.07Z"/>
    <path class="cls-11" d="M620.16,421.7c-1.31,1.77-5.32-.45-6.94-1.05-33.99-12.59-66.38-34.67-90.47-61.73-3.23-3.63-7.36-8.31-9.03-12.79,45.86-4.28,84.25,41.02,106.44,75.57Z"/>
    <path class="cls-1" d="M557.36,425.96c-18.12-11.15-43.56-29.35-56.42-46.3-1.13-1.49-2-2.86-2.12-4.79,34.03-12.78,53.79,23.21,58.54,51.09Z"/>
  </g>
</svg>