<?xml version="1.0" encoding="UTF-8"?>
<svg id="Layer_1" data-name="Layer 1" xmlns="http://www.w3.org/2000/svg" viewBox="0 0 1734 716.87">
  <defs>
    <style>
      .cls-1 {
        fill: #fff;
      }

      .cls-2 {
        fill: #ff8bf4;
      }
    </style>
  </defs>
  <g>
    <path class="cls-2" d="M200.26,162.68h-98.06L0,486.17v35.94h74.98l10.52-40.64.92-3.51,6.52-25.18h.05l28.86-110.39,27.07-104.24h4.6l27.07,104.24,28.86,110.39h.05l6.52,25.18.92,3.51,10.52,40.64h75.49v-35.94l-102.71-323.49Z"/>
    <path class="cls-2" d="M425.67,522.1h-77.02V162.67h77.02v359.43Z"/>
    <path class="cls-2" d="M686.51,527.24c-22.94,0-41.51-7.1-55.71-21.31-14.21-14.2-21.31-32.77-21.31-55.71v-41.08c0-22.25,6.76-39.79,20.28-52.63,13.52-12.84,29.52-19.77,48.01-20.8v-3.59c-7.88-5.47-14.98-13.94-21.31-25.42-6.34-11.46-9.5-23.88-9.5-37.23v-29.78c0-23.27,7.1-41.93,21.31-55.97,14.2-14.03,32.77-21.05,55.71-21.05h126.83v47.75l-22.59,22.59h-78.05c-8.56,0-15.07,2.23-19.51,6.68-4.45,4.45-6.68,10.78-6.68,19v4.11c0,4.8.94,9.16,2.82,13.09,1.88,3.94,5.56,9.16,11.04,15.66l167.39,193.07v37.48h-74.97l-22.59-27.21h-3.08c-4.8,8.22-13.01,15.66-24.65,22.34-11.64,6.68-25.16,10.01-40.56,10.01h-52.89ZM736.83,458.94c7.87,0,13.94-2.13,18.23-6.42,4.28-4.28,6.59-9.15,6.93-14.63l-43.13-50.32h-7.19c-16.78,0-25.16,8.91-25.16,26.7v20.03c0,7.53,2.13,13.53,6.42,17.97,4.28,4.45,10.18,6.68,17.72,6.68h26.19Z"/>
    <path class="cls-2" d="M1121.94,522.1h-81.13v-37.48l33.38-321.95h86.26l79.59,203.85h3.59l79.59-203.85h86.26l33.38,321.95v37.48h-81.13l-13.86-232.6h-3.08l-70.35,181.26h-65.21l-69.83-181.26h-3.59l-13.86,232.6Z"/>
    <path class="cls-2" d="M1734,522.1h-233.12V162.67h77.02v289.09h156.1v70.35Z"/>
  </g>
  <g>
    <path class="cls-1" d="M1.85,613.25c0-16.65,11.1-27.76,28.68-27.76h40.71v5.55l-1.85,1.85H30.53c-12.95,0-20.35,7.4-20.35,20.35v11.1c0,9.25,5.55,14.62,12.95,16.66l31.46,8.33c12.95,3.52,19.43,10.18,19.43,24.06v13.88c0,16.65-11.1,27.76-28.68,27.76H0v-7.4h45.34c12.95,0,20.36-7.4,20.36-20.35v-13.88c0-9.25-5.55-14.62-12.95-16.65l-31.46-8.33c-12.95-3.52-19.43-10.18-19.43-24.06v-11.1Z"/>
    <path class="cls-1" d="M126.76,716.87c-17.58,0-28.68-11.1-28.68-27.76v-77.72c0-16.65,11.1-27.76,28.68-27.76h24.06c17.58,0,28.68,11.1,28.68,27.76v77.72c0,16.65-11.1,27.76-28.68,27.76h-24.06ZM150.82,709.47c12.95,0,20.35-7.4,20.35-20.35v-77.72c0-12.95-7.4-20.35-20.35-20.35h-24.06c-12.95,0-20.35,7.4-20.35,20.35v77.72c0,12.95,7.4,20.35,20.35,20.35h24.06Z"/>
    <path class="cls-1" d="M237.79,592.89c-12.95,0-20.35,7.4-20.35,20.35v74.02c0,12.95,7.4,20.35,20.35,20.35h42.56v7.4h-42.56c-17.58,0-28.68-11.1-28.68-27.76v-74.02c0-16.65,11.1-27.76,28.68-27.76h42.56v5.55l-1.85,1.85h-40.71Z"/>
    <path class="cls-1" d="M305.34,715.02v-129.53h8.33v129.53h-8.33Z"/>
    <path class="cls-1" d="M420.07,591.04l-1.85,1.85h-59.22v51.81h46.26v7.4h-46.26v55.51h61.07v7.4h-69.39v-129.53h69.39v5.55Z"/>
    <path class="cls-1" d="M427.47,585.49h80.49v5.55l-1.85,1.85h-34.23v122.13h-8.33v-122.13h-36.08v-7.4Z"/>
    <path class="cls-1" d="M520.92,585.49l33.31,76.8h.93l33.31-76.8h8.33v3.7l-37.93,84.2v41.64h-8.33v-41.64l-37.93-84.2v-3.7h8.33Z"/>
  </g>
  <g>
    <path class="cls-1" d="M34.07,102.2l11.36,18.45v2.84h-6.39l-10.65-21.29h-6.39c-13.49,0-22-8.52-22-21.29V21.29C0,8.52,8.52,0,22,0h18.45c13.49,0,22,8.52,22,21.29v59.62c0,12.77-8.52,21.29-22,21.29h-6.39ZM40.46,96.53c9.94,0,15.62-5.68,15.62-15.61V21.29c0-9.94-5.68-15.61-15.62-15.61h-18.45c-9.94,0-15.62,5.68-15.62,15.61v59.62c0,9.94,5.68,15.61,15.62,15.61h18.45Z"/>
    <path class="cls-1" d="M94.4,1.42v79.49c0,9.94,5.68,15.61,15.61,15.61h14.2c9.94,0,15.61-5.68,15.61-15.61V1.42h6.39v79.49c0,12.77-8.52,21.29-22,21.29h-14.2c-13.49,0-22-8.52-22-21.29V1.42h6.39Z"/>
    <path class="cls-1" d="M161.83,1.42h61.75v4.26l-1.42,1.42h-26.26v93.69h-6.39V7.1h-27.68V1.42Z"/>
  </g>
</svg>